<mxfile host="app.diagrams.net" modified="2024-05-18T20:22:59.109Z" agent="Mozilla/5.0 (Macintosh; Intel Mac OS X 10_15_7) AppleWebKit/537.36 (KHTML, like Gecko) Chrome/124.0.0.0 Safari/537.36" etag="cZkRIKLJtiCHx8PZMvOB" version="24.4.0" type="github" pages="2">
  <diagram name="Страница — 1" id="QuONOwKnslvq9nY079jv">
    <mxGraphModel dx="2052" dy="1302" grid="1" gridSize="10" guides="1" tooltips="1" connect="1" arrows="1" fold="1" page="1" pageScale="1" pageWidth="827" pageHeight="1169" math="0" shadow="0">
      <root>
        <mxCell id="0" />
        <mxCell id="1" parent="0" />
        <mxCell id="njvdmeLRhzQaKq89l4y6-4" value="Выплата перевода" style="swimlane;childLayout=stackLayout;resizeParent=1;resizeParentMax=0;horizontal=0;startSize=20;horizontalStack=0;html=1;" vertex="1" parent="1">
          <mxGeometry x="160" y="40" width="1260" height="390" as="geometry" />
        </mxCell>
        <mxCell id="njvdmeLRhzQaKq89l4y6-5" value="Клиент" style="swimlane;startSize=20;horizontal=0;html=1;" vertex="1" parent="njvdmeLRhzQaKq89l4y6-4">
          <mxGeometry x="20" width="1240" height="190" as="geometry" />
        </mxCell>
        <mxCell id="njvdmeLRhzQaKq89l4y6-12" value="" style="strokeWidth=2;html=1;shape=mxgraph.flowchart.start_2;whiteSpace=wrap;fillColor=#d5e8d4;strokeColor=#82b366;" vertex="1" parent="njvdmeLRhzQaKq89l4y6-5">
          <mxGeometry x="70" y="80" width="30" height="30" as="geometry" />
        </mxCell>
        <mxCell id="njvdmeLRhzQaKq89l4y6-13" value="&lt;p style=&quot;line-height: 106%;&quot;&gt;&lt;font data-sider-select-id=&quot;1f2a6467-5bed-42fa-9687-dce3af121b29&quot; style=&quot;font-size: 10px;&quot;&gt;Клиент обратился &lt;br&gt;к терминалу в банке&lt;/font&gt;&lt;/p&gt;" style="text;strokeColor=none;align=center;fillColor=none;html=1;verticalAlign=middle;whiteSpace=wrap;rounded=0;perimeterSpacing=0;strokeWidth=1;" vertex="1" parent="njvdmeLRhzQaKq89l4y6-5">
          <mxGeometry x="33.75" y="120" width="106.25" height="30" as="geometry" />
        </mxCell>
        <mxCell id="njvdmeLRhzQaKq89l4y6-14" style="edgeStyle=orthogonalEdgeStyle;rounded=0;orthogonalLoop=1;jettySize=auto;html=1;entryX=0;entryY=0.5;entryDx=0;entryDy=0;" edge="1" parent="njvdmeLRhzQaKq89l4y6-5" source="njvdmeLRhzQaKq89l4y6-12" target="njvdmeLRhzQaKq89l4y6-16">
          <mxGeometry relative="1" as="geometry">
            <mxPoint x="220" y="95" as="targetPoint" />
          </mxGeometry>
        </mxCell>
        <mxCell id="njvdmeLRhzQaKq89l4y6-16" value="&lt;font data-sider-select-id=&quot;254a3082-e860-41d3-8f90-ba41688f042c&quot; style=&quot;font-size: 10px;&quot;&gt;Выбрать сервис получения перевода&lt;/font&gt;" style="rounded=1;whiteSpace=wrap;html=1;" vertex="1" parent="njvdmeLRhzQaKq89l4y6-5">
          <mxGeometry x="174" y="65" width="96" height="60" as="geometry" />
        </mxCell>
        <mxCell id="njvdmeLRhzQaKq89l4y6-21" value="Внести данные для получения перевода" style="points=[[0.25,0,0],[0.5,0,0],[0.75,0,0],[1,0.25,0],[1,0.5,0],[1,0.75,0],[0.75,1,0],[0.5,1,0],[0.25,1,0],[0,0.75,0],[0,0.5,0],[0,0.25,0]];shape=mxgraph.bpmn.task;whiteSpace=wrap;rectStyle=rounded;size=10;html=1;container=1;expand=0;collapsible=0;taskMarker=abstract;isLoopSub=1;" vertex="1" parent="njvdmeLRhzQaKq89l4y6-5">
          <mxGeometry x="360" y="55" width="120" height="80" as="geometry" />
        </mxCell>
        <mxCell id="f-hPC83dfAMZRTAtTwz_-23" value="" style="strokeWidth=2;html=1;shape=mxgraph.flowchart.start_2;whiteSpace=wrap;fillColor=#f8cecc;strokeColor=#b85450;" vertex="1" parent="njvdmeLRhzQaKq89l4y6-5">
          <mxGeometry x="841.5" y="65" width="33" height="30" as="geometry" />
        </mxCell>
        <mxCell id="f-hPC83dfAMZRTAtTwz_-25" value="&lt;p style=&quot;line-height: 106%;&quot;&gt;&lt;font data-sider-select-id=&quot;1f2a6467-5bed-42fa-9687-dce3af121b29&quot; style=&quot;font-size: 10px;&quot;&gt;Клиент получил ошибку перевода&lt;/font&gt;&lt;/p&gt;" style="text;strokeColor=none;align=center;fillColor=none;html=1;verticalAlign=middle;whiteSpace=wrap;rounded=0;perimeterSpacing=0;strokeWidth=1;" vertex="1" parent="njvdmeLRhzQaKq89l4y6-5">
          <mxGeometry x="804.88" y="25" width="106.25" height="30" as="geometry" />
        </mxCell>
        <mxCell id="f-hPC83dfAMZRTAtTwz_-33" value="&lt;span data-sider-select-id=&quot;3a77f73e-dc2f-4a4f-b522-fc57b115b6f7&quot; style=&quot;font-size: 10px;&quot;&gt;Получить &lt;br&gt;перевод&lt;/span&gt;" style="rounded=1;whiteSpace=wrap;html=1;" vertex="1" parent="njvdmeLRhzQaKq89l4y6-5">
          <mxGeometry x="960" y="55" width="96" height="60" as="geometry" />
        </mxCell>
        <mxCell id="f-hPC83dfAMZRTAtTwz_-37" value="" style="strokeWidth=2;html=1;shape=mxgraph.flowchart.start_2;whiteSpace=wrap;fillColor=#f8cecc;strokeColor=#b85450;" vertex="1" parent="njvdmeLRhzQaKq89l4y6-5">
          <mxGeometry x="1140" y="70" width="33" height="30" as="geometry" />
        </mxCell>
        <mxCell id="f-hPC83dfAMZRTAtTwz_-38" style="edgeStyle=orthogonalEdgeStyle;rounded=0;orthogonalLoop=1;jettySize=auto;html=1;entryX=0;entryY=0.5;entryDx=0;entryDy=0;entryPerimeter=0;" edge="1" parent="njvdmeLRhzQaKq89l4y6-5" source="f-hPC83dfAMZRTAtTwz_-33" target="f-hPC83dfAMZRTAtTwz_-37">
          <mxGeometry relative="1" as="geometry" />
        </mxCell>
        <mxCell id="f-hPC83dfAMZRTAtTwz_-39" value="&lt;p style=&quot;line-height: 106%;&quot;&gt;&lt;font data-sider-select-id=&quot;1f2a6467-5bed-42fa-9687-dce3af121b29&quot; style=&quot;font-size: 10px;&quot;&gt;Клиент получил перевод&lt;/font&gt;&lt;/p&gt;" style="text;strokeColor=none;align=center;fillColor=none;html=1;verticalAlign=middle;whiteSpace=wrap;rounded=0;perimeterSpacing=0;strokeWidth=1;" vertex="1" parent="njvdmeLRhzQaKq89l4y6-5">
          <mxGeometry x="1103.37" y="105" width="106.25" height="30" as="geometry" />
        </mxCell>
        <mxCell id="njvdmeLRhzQaKq89l4y6-18" style="edgeStyle=orthogonalEdgeStyle;rounded=0;orthogonalLoop=1;jettySize=auto;html=1;" edge="1" parent="njvdmeLRhzQaKq89l4y6-4" source="njvdmeLRhzQaKq89l4y6-16" target="njvdmeLRhzQaKq89l4y6-17">
          <mxGeometry relative="1" as="geometry" />
        </mxCell>
        <mxCell id="njvdmeLRhzQaKq89l4y6-22" style="edgeStyle=orthogonalEdgeStyle;rounded=0;orthogonalLoop=1;jettySize=auto;html=1;entryX=0;entryY=0.5;entryDx=0;entryDy=0;entryPerimeter=0;" edge="1" parent="njvdmeLRhzQaKq89l4y6-4" source="njvdmeLRhzQaKq89l4y6-17" target="njvdmeLRhzQaKq89l4y6-21">
          <mxGeometry relative="1" as="geometry" />
        </mxCell>
        <mxCell id="f-hPC83dfAMZRTAtTwz_-3" style="edgeStyle=orthogonalEdgeStyle;rounded=0;orthogonalLoop=1;jettySize=auto;html=1;entryX=0;entryY=0.5;entryDx=0;entryDy=0;" edge="1" parent="njvdmeLRhzQaKq89l4y6-4" source="njvdmeLRhzQaKq89l4y6-21" target="f-hPC83dfAMZRTAtTwz_-2">
          <mxGeometry relative="1" as="geometry" />
        </mxCell>
        <mxCell id="njvdmeLRhzQaKq89l4y6-6" value="Сервис" style="swimlane;startSize=20;horizontal=0;html=1;" vertex="1" parent="njvdmeLRhzQaKq89l4y6-4">
          <mxGeometry x="20" y="190" width="1240" height="200" as="geometry" />
        </mxCell>
        <mxCell id="njvdmeLRhzQaKq89l4y6-17" value="&lt;font data-sider-select-id=&quot;254a3082-e860-41d3-8f90-ba41688f042c&quot; style=&quot;font-size: 10px;&quot;&gt;Отобразить форму заполнения данных для получения перевода&lt;/font&gt;" style="rounded=1;whiteSpace=wrap;html=1;" vertex="1" parent="njvdmeLRhzQaKq89l4y6-6">
          <mxGeometry x="174" y="70" width="96" height="60" as="geometry" />
        </mxCell>
        <mxCell id="f-hPC83dfAMZRTAtTwz_-2" value="&lt;span style=&quot;font-size: 10px;&quot;&gt;Проверить корректность данных&lt;/span&gt;" style="rounded=1;whiteSpace=wrap;html=1;" vertex="1" parent="njvdmeLRhzQaKq89l4y6-6">
          <mxGeometry x="530" y="70" width="96" height="60" as="geometry" />
        </mxCell>
        <mxCell id="f-hPC83dfAMZRTAtTwz_-13" style="edgeStyle=orthogonalEdgeStyle;rounded=0;orthogonalLoop=1;jettySize=auto;html=1;entryX=0;entryY=0.5;entryDx=0;entryDy=0;exitX=0.5;exitY=0;exitDx=0;exitDy=0;exitPerimeter=0;" edge="1" parent="njvdmeLRhzQaKq89l4y6-6" source="f-hPC83dfAMZRTAtTwz_-8" target="f-hPC83dfAMZRTAtTwz_-11">
          <mxGeometry relative="1" as="geometry" />
        </mxCell>
        <mxCell id="f-hPC83dfAMZRTAtTwz_-15" value="Нет" style="edgeLabel;html=1;align=center;verticalAlign=middle;resizable=0;points=[];" vertex="1" connectable="0" parent="f-hPC83dfAMZRTAtTwz_-13">
          <mxGeometry x="0.1311" y="1" relative="1" as="geometry">
            <mxPoint as="offset" />
          </mxGeometry>
        </mxCell>
        <mxCell id="f-hPC83dfAMZRTAtTwz_-14" style="edgeStyle=orthogonalEdgeStyle;rounded=0;orthogonalLoop=1;jettySize=auto;html=1;" edge="1" parent="njvdmeLRhzQaKq89l4y6-6" source="f-hPC83dfAMZRTAtTwz_-8" target="f-hPC83dfAMZRTAtTwz_-12">
          <mxGeometry relative="1" as="geometry">
            <Array as="points">
              <mxPoint x="695" y="140" />
            </Array>
          </mxGeometry>
        </mxCell>
        <mxCell id="f-hPC83dfAMZRTAtTwz_-16" value="Да" style="edgeLabel;html=1;align=center;verticalAlign=middle;resizable=0;points=[];" vertex="1" connectable="0" parent="f-hPC83dfAMZRTAtTwz_-14">
          <mxGeometry x="0.346" y="3" relative="1" as="geometry">
            <mxPoint y="3" as="offset" />
          </mxGeometry>
        </mxCell>
        <mxCell id="f-hPC83dfAMZRTAtTwz_-8" value="Данные &lt;br&gt;корректны?" style="points=[[0.25,0.25,0],[0.5,0,0],[0.75,0.25,0],[1,0.5,0],[0.75,0.75,0],[0.5,1,0],[0.25,0.75,0],[0,0.5,0]];shape=mxgraph.bpmn.gateway2;html=1;verticalLabelPosition=bottom;labelBackgroundColor=#ffffff;verticalAlign=top;align=center;perimeter=rhombusPerimeter;outlineConnect=0;outline=none;symbol=none;gwType=exclusive;" vertex="1" parent="njvdmeLRhzQaKq89l4y6-6">
          <mxGeometry x="670" y="75" width="50" height="50" as="geometry" />
        </mxCell>
        <mxCell id="f-hPC83dfAMZRTAtTwz_-9" style="edgeStyle=orthogonalEdgeStyle;rounded=0;orthogonalLoop=1;jettySize=auto;html=1;entryX=0;entryY=0.5;entryDx=0;entryDy=0;entryPerimeter=0;" edge="1" parent="njvdmeLRhzQaKq89l4y6-6" source="f-hPC83dfAMZRTAtTwz_-2" target="f-hPC83dfAMZRTAtTwz_-8">
          <mxGeometry relative="1" as="geometry" />
        </mxCell>
        <mxCell id="f-hPC83dfAMZRTAtTwz_-11" value="&lt;span data-sider-select-id=&quot;b9805af1-b371-4573-a259-35b40aabfa1f&quot; style=&quot;font-size: 10px;&quot;&gt;Сообщить об&lt;br&gt;ошибке&lt;/span&gt;" style="rounded=1;whiteSpace=wrap;html=1;" vertex="1" parent="njvdmeLRhzQaKq89l4y6-6">
          <mxGeometry x="810" y="15" width="96" height="60" as="geometry" />
        </mxCell>
        <mxCell id="f-hPC83dfAMZRTAtTwz_-18" style="edgeStyle=orthogonalEdgeStyle;rounded=0;orthogonalLoop=1;jettySize=auto;html=1;" edge="1" parent="njvdmeLRhzQaKq89l4y6-6" source="f-hPC83dfAMZRTAtTwz_-12" target="f-hPC83dfAMZRTAtTwz_-17">
          <mxGeometry relative="1" as="geometry" />
        </mxCell>
        <mxCell id="f-hPC83dfAMZRTAtTwz_-12" value="&lt;span data-sider-select-id=&quot;20aa965b-3b6b-4ebb-a299-4578c002e4e3&quot; style=&quot;font-size: 10px;&quot;&gt;Создать перевод&lt;br&gt;в системе&lt;/span&gt;" style="rounded=1;whiteSpace=wrap;html=1;" vertex="1" parent="njvdmeLRhzQaKq89l4y6-6">
          <mxGeometry x="810" y="110" width="96" height="60" as="geometry" />
        </mxCell>
        <mxCell id="f-hPC83dfAMZRTAtTwz_-17" value="&lt;span data-sider-select-id=&quot;3a77f73e-dc2f-4a4f-b522-fc57b115b6f7&quot; style=&quot;font-size: 10px;&quot;&gt;Отобразить данные о переводе клиенту&lt;/span&gt;" style="rounded=1;whiteSpace=wrap;html=1;" vertex="1" parent="njvdmeLRhzQaKq89l4y6-6">
          <mxGeometry x="960" y="110" width="96" height="60" as="geometry" />
        </mxCell>
        <mxCell id="f-hPC83dfAMZRTAtTwz_-24" style="edgeStyle=orthogonalEdgeStyle;rounded=0;orthogonalLoop=1;jettySize=auto;html=1;" edge="1" parent="njvdmeLRhzQaKq89l4y6-4" source="f-hPC83dfAMZRTAtTwz_-11" target="f-hPC83dfAMZRTAtTwz_-23">
          <mxGeometry relative="1" as="geometry" />
        </mxCell>
        <mxCell id="f-hPC83dfAMZRTAtTwz_-35" style="edgeStyle=orthogonalEdgeStyle;rounded=0;orthogonalLoop=1;jettySize=auto;html=1;" edge="1" parent="njvdmeLRhzQaKq89l4y6-4" source="f-hPC83dfAMZRTAtTwz_-17" target="f-hPC83dfAMZRTAtTwz_-33">
          <mxGeometry relative="1" as="geometry">
            <mxPoint x="1020" y="120" as="targetPoint" />
          </mxGeometry>
        </mxCell>
      </root>
    </mxGraphModel>
  </diagram>
  <diagram id="BxvQKWtgrVkJmPqTaLMh" name="Страница — 2">
    <mxGraphModel dx="1026" dy="651" grid="1" gridSize="10" guides="1" tooltips="1" connect="1" arrows="1" fold="1" page="1" pageScale="1" pageWidth="827" pageHeight="1169" math="0" shadow="0">
      <root>
        <mxCell id="0" />
        <mxCell id="1" parent="0" />
      </root>
    </mxGraphModel>
  </diagram>
</mxfile>
